# xmcd
#
# Track frame offsets:
#	150
#	9079
#	23764
#	39404
#	49562
#	59987
#	71858
#	83832
#	94352
#	104241
#	117377
#	130235
#	141318
#	154117
#	164115
#	174461
#	187379
#	201605
#	212950
#	223964
#	235290
#	247597
#	259280
#	271404
#	282355
#	296173
#
# Disc length: 4110 seconds
#
# Revision: 1
# Processed by: cddbd v1.5.2PL0 Copyright (c) Steve Scherf et al.
# Submitted via: audiograbber 1.83.01
#
DISCID=ad100c1a
DTITLE=Various Artist - 101 Northern Soul Anthems - Disc 1
DYEAR=2009
DGENRE=Northern Soul
TTITLE0=Dobie Gray - Out On The Floor
TTITLE1=Don Thomas - Come On Train
TTITLE2=Al Wilson - The Snake
TTITLE3=The M.V.P's - Turning My Heartbeat Up
TTITLE4=Chuck Woods - Seven Days Too Long
TTITLE5=The Invitations - Skiing In The Snow
TTITLE6=The Casualeers - Dance Dance Dance
TTITLE7=Mel Britt - She'll Come Running Back
TTITLE8=Tony Clarke - Landslide
TTITLE9=Sandi Sheldon - You're Gonna Make Me Love You
TTITLE10=Jackie Wilson - (Your Love Keeps Lifting Me) Higher and Higher
TTITLE11=Billy Butler - Right Track
TTITLE12=Jerry Williams - If You Ask Me (Because I Love You)
TTITLE13=Major Lance - You Don't Want Me No More
TTITLE14=Roy Hamilton - Crackin' Up Over You
TTITLE15=Little Anthony and The Imperials - Better Use Your Head
TTITLE16=Bobby Paris - I Walked Away
TTITLE17=Lainie Hill - Time Marches On
TTITLE18=Shawn Robinson - My Dear Heart
TTITLE19=Ila Vann - Can't Help Lovin' Dat Man
TTITLE20=The Poets - She Blew A Good Thing
TTITLE21=Darrell Banks - Open The Door To Your Heart
TTITLE22=Willie Tee - Walking Up A One Way Street
TTITLE23=Jimmy Radcliffe - Long After Tonight Is All Over
TTITLE24=Tobi Legend - Time Will Pass You By
TTITLE25=Dean Parrish - I'm On My Way
EXTD=
EXTT0=
EXTT1=
EXTT2=
EXTT3=
EXTT4=
EXTT5=
EXTT6=
EXTT7=
EXTT8=
EXTT9=
EXTT10=
EXTT11=
EXTT12=
EXTT13=
EXTT14=
EXTT15=
EXTT16=
EXTT17=
EXTT18=
EXTT19=
EXTT20=
EXTT21=
EXTT22=
EXTT23=
EXTT24=
EXTT25=
PLAYORDER=
